<mxfile host="app.diagrams.net" agent="Mozilla/5.0 (Windows NT 10.0; Win64; x64) AppleWebKit/537.36 (KHTML, like Gecko) Chrome/139.0.0.0 Safari/537.36" version="28.1.0">
  <diagram name="Page-1" id="GNgqUFo-OiHJyr59_QW6">
    <mxGraphModel dx="2006" dy="1526" grid="1" gridSize="10" guides="1" tooltips="1" connect="1" arrows="1" fold="1" page="1" pageScale="1" pageWidth="827" pageHeight="1169" math="0" shadow="0">
      <root>
        <mxCell id="0" />
        <mxCell id="1" parent="0" />
        <mxCell id="ql1I9ebc44FmFIgegDxp-1" style="edgeStyle=orthogonalEdgeStyle;rounded=0;orthogonalLoop=1;jettySize=auto;html=1;entryX=0.5;entryY=0;entryDx=0;entryDy=0;" parent="1" source="ql1I9ebc44FmFIgegDxp-2" target="ql1I9ebc44FmFIgegDxp-20" edge="1">
          <mxGeometry relative="1" as="geometry">
            <mxPoint x="1735" y="640" as="targetPoint" />
          </mxGeometry>
        </mxCell>
        <mxCell id="ql1I9ebc44FmFIgegDxp-2" value="main_builder.py" style="rounded=0;whiteSpace=wrap;html=1;" parent="1" vertex="1">
          <mxGeometry x="1680" width="110" height="60" as="geometry" />
        </mxCell>
        <mxCell id="ql1I9ebc44FmFIgegDxp-20" value="Data" style="rhombus;whiteSpace=wrap;html=1;" parent="1" vertex="1">
          <mxGeometry x="1696.25" y="1550" width="77.5" height="80" as="geometry" />
        </mxCell>
        <mxCell id="ql1I9ebc44FmFIgegDxp-42" style="edgeStyle=orthogonalEdgeStyle;rounded=0;orthogonalLoop=1;jettySize=auto;html=1;entryX=1;entryY=0.5;entryDx=0;entryDy=0;" parent="1" source="ql1I9ebc44FmFIgegDxp-21" target="ql1I9ebc44FmFIgegDxp-23" edge="1">
          <mxGeometry relative="1" as="geometry" />
        </mxCell>
        <mxCell id="ql1I9ebc44FmFIgegDxp-21" value="PDF --&amp;gt; JSON&amp;nbsp;" style="rounded=0;whiteSpace=wrap;html=1;" parent="1" vertex="1">
          <mxGeometry x="2011.5" y="60" width="110" height="60" as="geometry" />
        </mxCell>
        <mxCell id="ql1I9ebc44FmFIgegDxp-48" style="edgeStyle=orthogonalEdgeStyle;rounded=0;orthogonalLoop=1;jettySize=auto;html=1;" parent="1" source="ql1I9ebc44FmFIgegDxp-23" edge="1">
          <mxGeometry relative="1" as="geometry">
            <mxPoint x="1738.5" y="90" as="targetPoint" />
          </mxGeometry>
        </mxCell>
        <mxCell id="ql1I9ebc44FmFIgegDxp-23" value="summary.json" style="ellipse;whiteSpace=wrap;html=1;" parent="1" vertex="1">
          <mxGeometry x="1808.5" y="50" width="120" height="80" as="geometry" />
        </mxCell>
        <mxCell id="ql1I9ebc44FmFIgegDxp-25" value="PDF--&amp;gt; TAB ACRONYM" style="rounded=0;whiteSpace=wrap;html=1;" parent="1" vertex="1">
          <mxGeometry x="2380" y="160" width="110" height="60" as="geometry" />
        </mxCell>
        <mxCell id="ql1I9ebc44FmFIgegDxp-38" style="edgeStyle=orthogonalEdgeStyle;rounded=0;orthogonalLoop=1;jettySize=auto;html=1;entryX=1;entryY=0.25;entryDx=0;entryDy=0;" parent="1" source="ql1I9ebc44FmFIgegDxp-27" target="ql1I9ebc44FmFIgegDxp-35" edge="1">
          <mxGeometry relative="1" as="geometry" />
        </mxCell>
        <mxCell id="ql1I9ebc44FmFIgegDxp-27" value="Acronym_extracted" style="ellipse;whiteSpace=wrap;html=1;" parent="1" vertex="1">
          <mxGeometry x="2210" y="150" width="120" height="80" as="geometry" />
        </mxCell>
        <mxCell id="ql1I9ebc44FmFIgegDxp-57" style="edgeStyle=orthogonalEdgeStyle;rounded=0;orthogonalLoop=1;jettySize=auto;html=1;entryX=0;entryY=0;entryDx=0;entryDy=0;" parent="1" source="ql1I9ebc44FmFIgegDxp-30" target="ql1I9ebc44FmFIgegDxp-46" edge="1">
          <mxGeometry relative="1" as="geometry">
            <Array as="points">
              <mxPoint x="1870" y="290" />
              <mxPoint x="1970" y="290" />
              <mxPoint x="1970" y="345" />
            </Array>
          </mxGeometry>
        </mxCell>
        <mxCell id="ql1I9ebc44FmFIgegDxp-59" style="edgeStyle=orthogonalEdgeStyle;rounded=0;orthogonalLoop=1;jettySize=auto;html=1;" parent="1" source="ql1I9ebc44FmFIgegDxp-30" edge="1">
          <mxGeometry relative="1" as="geometry">
            <mxPoint x="1740" y="244.9999999999999" as="targetPoint" />
          </mxGeometry>
        </mxCell>
        <mxCell id="ql1I9ebc44FmFIgegDxp-30" value="Acronym_FINAL" style="ellipse;whiteSpace=wrap;html=1;" parent="1" vertex="1">
          <mxGeometry x="1810" y="205" width="120" height="80" as="geometry" />
        </mxCell>
        <mxCell id="ql1I9ebc44FmFIgegDxp-44" style="edgeStyle=orthogonalEdgeStyle;rounded=0;orthogonalLoop=1;jettySize=auto;html=1;entryX=1;entryY=0.5;entryDx=0;entryDy=0;" parent="1" source="ql1I9ebc44FmFIgegDxp-34" target="ql1I9ebc44FmFIgegDxp-29" edge="1">
          <mxGeometry relative="1" as="geometry" />
        </mxCell>
        <mxCell id="ql1I9ebc44FmFIgegDxp-34" value="JSON --&amp;gt; Acronym(ACR)" style="rounded=0;whiteSpace=wrap;html=1;" parent="1" vertex="1">
          <mxGeometry x="2390" y="280" width="110" height="60" as="geometry" />
        </mxCell>
        <mxCell id="ql1I9ebc44FmFIgegDxp-47" style="edgeStyle=orthogonalEdgeStyle;rounded=0;orthogonalLoop=1;jettySize=auto;html=1;" parent="1" source="ql1I9ebc44FmFIgegDxp-46" target="ql1I9ebc44FmFIgegDxp-31" edge="1">
          <mxGeometry relative="1" as="geometry" />
        </mxCell>
        <mxCell id="ql1I9ebc44FmFIgegDxp-46" value="&lt;span style=&quot;background-color: light-dark(rgb(211, 213, 214), rgb(0, 0, 0));&quot;&gt;&lt;font style=&quot;color: light-dark(rgb(18, 18, 18), rgb(255, 255, 255));&quot;&gt;ACRONYM UNIQUE&lt;/font&gt;&lt;/span&gt;" style="rounded=0;whiteSpace=wrap;html=1;" parent="1" vertex="1">
          <mxGeometry x="2013" y="345" width="110" height="60" as="geometry" />
        </mxCell>
        <mxCell id="ql1I9ebc44FmFIgegDxp-58" style="edgeStyle=orthogonalEdgeStyle;rounded=0;orthogonalLoop=1;jettySize=auto;html=1;" parent="1" source="ql1I9ebc44FmFIgegDxp-31" edge="1">
          <mxGeometry relative="1" as="geometry">
            <mxPoint x="1740" y="375" as="targetPoint" />
          </mxGeometry>
        </mxCell>
        <mxCell id="ql1I9ebc44FmFIgegDxp-31" value="Acronym_Unique" style="ellipse;whiteSpace=wrap;html=1;" parent="1" vertex="1">
          <mxGeometry x="1810" y="335" width="120" height="80" as="geometry" />
        </mxCell>
        <mxCell id="ql1I9ebc44FmFIgegDxp-51" value="" style="edgeStyle=orthogonalEdgeStyle;rounded=0;orthogonalLoop=1;jettySize=auto;html=1;entryX=1;entryY=0.5;entryDx=0;entryDy=0;" parent="1" source="ql1I9ebc44FmFIgegDxp-25" target="ql1I9ebc44FmFIgegDxp-27" edge="1">
          <mxGeometry relative="1" as="geometry">
            <mxPoint x="2150" y="275" as="sourcePoint" />
            <mxPoint x="2013" y="200" as="targetPoint" />
          </mxGeometry>
        </mxCell>
        <mxCell id="ql1I9ebc44FmFIgegDxp-53" value="" style="edgeStyle=orthogonalEdgeStyle;rounded=0;orthogonalLoop=1;jettySize=auto;html=1;entryX=1;entryY=0.75;entryDx=0;entryDy=0;" parent="1" source="ql1I9ebc44FmFIgegDxp-29" target="ql1I9ebc44FmFIgegDxp-35" edge="1">
          <mxGeometry relative="1" as="geometry">
            <mxPoint x="2130" y="250" as="targetPoint" />
          </mxGeometry>
        </mxCell>
        <mxCell id="ql1I9ebc44FmFIgegDxp-29" value="Acronym_etude" style="ellipse;whiteSpace=wrap;html=1;" parent="1" vertex="1">
          <mxGeometry x="2210" y="270" width="120" height="80" as="geometry" />
        </mxCell>
        <mxCell id="ql1I9ebc44FmFIgegDxp-54" style="edgeStyle=orthogonalEdgeStyle;rounded=0;orthogonalLoop=1;jettySize=auto;html=1;entryX=1;entryY=0.5;entryDx=0;entryDy=0;" parent="1" source="ql1I9ebc44FmFIgegDxp-35" target="ql1I9ebc44FmFIgegDxp-30" edge="1">
          <mxGeometry relative="1" as="geometry" />
        </mxCell>
        <mxCell id="ql1I9ebc44FmFIgegDxp-35" value="MERGE_ACRONYM" style="rounded=0;whiteSpace=wrap;html=1;" parent="1" vertex="1">
          <mxGeometry x="2013" y="215" width="127" height="60" as="geometry" />
        </mxCell>
        <mxCell id="ql1I9ebc44FmFIgegDxp-65" style="edgeStyle=orthogonalEdgeStyle;rounded=0;orthogonalLoop=1;jettySize=auto;html=1;entryX=1;entryY=0.5;entryDx=0;entryDy=0;" parent="1" source="ql1I9ebc44FmFIgegDxp-60" target="ql1I9ebc44FmFIgegDxp-63" edge="1">
          <mxGeometry relative="1" as="geometry" />
        </mxCell>
        <mxCell id="ql1I9ebc44FmFIgegDxp-60" value="&lt;span style=&quot;background-color: light-dark(rgb(211, 213, 214), rgb(0, 0, 0));&quot;&gt;&lt;font style=&quot;color: light-dark(rgb(18, 18, 18), rgb(255, 255, 255));&quot;&gt;JSON -&amp;gt; SECTION&lt;/font&gt;&lt;/span&gt;" style="rounded=0;whiteSpace=wrap;html=1;" parent="1" vertex="1">
          <mxGeometry x="2020" y="480" width="110" height="60" as="geometry" />
        </mxCell>
        <mxCell id="ql1I9ebc44FmFIgegDxp-66" style="edgeStyle=orthogonalEdgeStyle;rounded=0;orthogonalLoop=1;jettySize=auto;html=1;entryX=1;entryY=0.5;entryDx=0;entryDy=0;" parent="1" source="ql1I9ebc44FmFIgegDxp-61" target="ql1I9ebc44FmFIgegDxp-64" edge="1">
          <mxGeometry relative="1" as="geometry" />
        </mxCell>
        <mxCell id="ql1I9ebc44FmFIgegDxp-61" value="&lt;span style=&quot;background-color: light-dark(rgb(211, 213, 214), rgb(0, 0, 0));&quot;&gt;&lt;font style=&quot;color: light-dark(rgb(18, 18, 18), rgb(255, 255, 255));&quot;&gt;JSON -&amp;gt; SECTION_FULL&lt;/font&gt;&lt;/span&gt;" style="rounded=0;whiteSpace=wrap;html=1;" parent="1" vertex="1">
          <mxGeometry x="2020" y="585" width="110" height="60" as="geometry" />
        </mxCell>
        <mxCell id="ql1I9ebc44FmFIgegDxp-68" style="edgeStyle=orthogonalEdgeStyle;rounded=0;orthogonalLoop=1;jettySize=auto;html=1;" parent="1" source="ql1I9ebc44FmFIgegDxp-63" edge="1">
          <mxGeometry relative="1" as="geometry">
            <mxPoint x="1740" y="510" as="targetPoint" />
          </mxGeometry>
        </mxCell>
        <mxCell id="ql1I9ebc44FmFIgegDxp-63" value="Sections_sorted" style="ellipse;whiteSpace=wrap;html=1;" parent="1" vertex="1">
          <mxGeometry x="1820" y="470" width="120" height="80" as="geometry" />
        </mxCell>
        <mxCell id="ql1I9ebc44FmFIgegDxp-67" style="edgeStyle=orthogonalEdgeStyle;rounded=0;orthogonalLoop=1;jettySize=auto;html=1;" parent="1" source="ql1I9ebc44FmFIgegDxp-64" edge="1">
          <mxGeometry relative="1" as="geometry">
            <mxPoint x="1740" y="615" as="targetPoint" />
          </mxGeometry>
        </mxCell>
        <mxCell id="ql1I9ebc44FmFIgegDxp-64" value="Sections_sorted_FULL" style="ellipse;whiteSpace=wrap;html=1;" parent="1" vertex="1">
          <mxGeometry x="1820" y="575" width="120" height="80" as="geometry" />
        </mxCell>
        <mxCell id="ql1I9ebc44FmFIgegDxp-73" value="" style="rounded=0;whiteSpace=wrap;html=1;fillColor=none;dashed=1;dashPattern=8 8;strokeWidth=3;" parent="1" vertex="1">
          <mxGeometry x="1690" y="460" width="480" height="210" as="geometry" />
        </mxCell>
        <mxCell id="ql1I9ebc44FmFIgegDxp-74" value="&lt;font style=&quot;font-size: 17px;&quot;&gt;SECTIONS&lt;/font&gt;" style="text;html=1;align=center;verticalAlign=middle;whiteSpace=wrap;rounded=0;" parent="1" vertex="1">
          <mxGeometry x="2180" y="455" width="90" height="45" as="geometry" />
        </mxCell>
        <mxCell id="ql1I9ebc44FmFIgegDxp-75" value="" style="rounded=0;whiteSpace=wrap;html=1;fillColor=none;dashed=1;dashPattern=8 8;strokeWidth=3;" parent="1" vertex="1">
          <mxGeometry x="1690" y="150" width="820" height="285" as="geometry" />
        </mxCell>
        <mxCell id="ql1I9ebc44FmFIgegDxp-76" value="&lt;font style=&quot;font-size: 17px;&quot;&gt;ACRONYMS&lt;/font&gt;" style="text;html=1;align=center;verticalAlign=middle;whiteSpace=wrap;rounded=0;" parent="1" vertex="1">
          <mxGeometry x="2530" y="150" width="120" height="45" as="geometry" />
        </mxCell>
        <mxCell id="ql1I9ebc44FmFIgegDxp-77" value="" style="rounded=0;whiteSpace=wrap;html=1;fillColor=none;dashed=1;dashPattern=8 8;strokeWidth=3;" parent="1" vertex="1">
          <mxGeometry x="1688" y="950" width="510" height="400" as="geometry" />
        </mxCell>
        <mxCell id="ql1I9ebc44FmFIgegDxp-78" value="&lt;font style=&quot;font-size: 17px;&quot;&gt;INDEX_SPARSE&lt;/font&gt;" style="text;html=1;align=center;verticalAlign=middle;whiteSpace=wrap;rounded=0;" parent="1" vertex="1">
          <mxGeometry x="2228" y="950" width="150" height="45" as="geometry" />
        </mxCell>
        <mxCell id="ql1I9ebc44FmFIgegDxp-84" style="edgeStyle=orthogonalEdgeStyle;rounded=0;orthogonalLoop=1;jettySize=auto;html=1;" parent="1" source="ql1I9ebc44FmFIgegDxp-79" edge="1">
          <mxGeometry relative="1" as="geometry">
            <mxPoint x="1738" y="1005" as="targetPoint" />
          </mxGeometry>
        </mxCell>
        <mxCell id="ql1I9ebc44FmFIgegDxp-79" value="Document_generator" style="ellipse;whiteSpace=wrap;html=1;" parent="1" vertex="1">
          <mxGeometry x="1818" y="965" width="120" height="80" as="geometry" />
        </mxCell>
        <mxCell id="ql1I9ebc44FmFIgegDxp-88" style="edgeStyle=orthogonalEdgeStyle;rounded=0;orthogonalLoop=1;jettySize=auto;html=1;" parent="1" source="ql1I9ebc44FmFIgegDxp-80" edge="1">
          <mxGeometry relative="1" as="geometry">
            <mxPoint x="1738" y="1100" as="targetPoint" />
          </mxGeometry>
        </mxCell>
        <mxCell id="ql1I9ebc44FmFIgegDxp-80" value="Vectorizer" style="ellipse;whiteSpace=wrap;html=1;" parent="1" vertex="1">
          <mxGeometry x="1818" y="1060" width="120" height="80" as="geometry" />
        </mxCell>
        <mxCell id="ql1I9ebc44FmFIgegDxp-86" style="edgeStyle=orthogonalEdgeStyle;rounded=0;orthogonalLoop=1;jettySize=auto;html=1;entryX=1;entryY=0.5;entryDx=0;entryDy=0;" parent="1" source="ql1I9ebc44FmFIgegDxp-81" target="ql1I9ebc44FmFIgegDxp-80" edge="1">
          <mxGeometry relative="1" as="geometry" />
        </mxCell>
        <mxCell id="ql1I9ebc44FmFIgegDxp-87" style="edgeStyle=orthogonalEdgeStyle;rounded=0;orthogonalLoop=1;jettySize=auto;html=1;entryX=1;entryY=0.5;entryDx=0;entryDy=0;" parent="1" source="ql1I9ebc44FmFIgegDxp-81" target="ql1I9ebc44FmFIgegDxp-85" edge="1">
          <mxGeometry relative="1" as="geometry" />
        </mxCell>
        <mxCell id="ql1I9ebc44FmFIgegDxp-91" style="edgeStyle=orthogonalEdgeStyle;rounded=0;orthogonalLoop=1;jettySize=auto;html=1;entryX=1;entryY=0.5;entryDx=0;entryDy=0;" parent="1" source="ql1I9ebc44FmFIgegDxp-81" target="ql1I9ebc44FmFIgegDxp-90" edge="1">
          <mxGeometry relative="1" as="geometry" />
        </mxCell>
        <mxCell id="ql1I9ebc44FmFIgegDxp-81" value="&lt;span style=&quot;background-color: light-dark(rgb(211, 213, 214), rgb(0, 0, 0));&quot;&gt;&lt;font style=&quot;color: light-dark(rgb(18, 18, 18), rgb(255, 255, 255));&quot;&gt;DOCUMENTS -&amp;gt; VECTORIZER&lt;/font&gt;&lt;/span&gt;" style="rounded=0;whiteSpace=wrap;html=1;" parent="1" vertex="1">
          <mxGeometry x="2018" y="1160" width="110" height="60" as="geometry" />
        </mxCell>
        <mxCell id="ql1I9ebc44FmFIgegDxp-83" style="edgeStyle=orthogonalEdgeStyle;rounded=0;orthogonalLoop=1;jettySize=auto;html=1;entryX=1;entryY=0.5;entryDx=0;entryDy=0;" parent="1" source="ql1I9ebc44FmFIgegDxp-82" target="ql1I9ebc44FmFIgegDxp-79" edge="1">
          <mxGeometry relative="1" as="geometry" />
        </mxCell>
        <mxCell id="ql1I9ebc44FmFIgegDxp-82" value="&lt;span style=&quot;background-color: light-dark(rgb(211, 213, 214), rgb(0, 0, 0));&quot;&gt;&lt;font style=&quot;color: light-dark(rgb(18, 18, 18), rgb(255, 255, 255));&quot;&gt;SECTIONS -&amp;gt; DOCUMENTS&lt;/font&gt;&lt;/span&gt;" style="rounded=0;whiteSpace=wrap;html=1;" parent="1" vertex="1">
          <mxGeometry x="2018" y="975" width="110" height="60" as="geometry" />
        </mxCell>
        <mxCell id="ql1I9ebc44FmFIgegDxp-89" style="edgeStyle=orthogonalEdgeStyle;rounded=0;orthogonalLoop=1;jettySize=auto;html=1;" parent="1" source="ql1I9ebc44FmFIgegDxp-85" edge="1">
          <mxGeometry relative="1" as="geometry">
            <mxPoint x="1738" y="1190" as="targetPoint" />
          </mxGeometry>
        </mxCell>
        <mxCell id="ql1I9ebc44FmFIgegDxp-85" value="Matrix_Sparse" style="ellipse;whiteSpace=wrap;html=1;" parent="1" vertex="1">
          <mxGeometry x="1818" y="1150" width="120" height="80" as="geometry" />
        </mxCell>
        <mxCell id="ql1I9ebc44FmFIgegDxp-92" style="edgeStyle=orthogonalEdgeStyle;rounded=0;orthogonalLoop=1;jettySize=auto;html=1;" parent="1" source="ql1I9ebc44FmFIgegDxp-90" edge="1">
          <mxGeometry relative="1" as="geometry">
            <mxPoint x="1738" y="1280" as="targetPoint" />
          </mxGeometry>
        </mxCell>
        <mxCell id="ql1I9ebc44FmFIgegDxp-90" value="Study_ID" style="ellipse;whiteSpace=wrap;html=1;" parent="1" vertex="1">
          <mxGeometry x="1818" y="1240" width="120" height="80" as="geometry" />
        </mxCell>
        <mxCell id="ql1I9ebc44FmFIgegDxp-96" style="edgeStyle=orthogonalEdgeStyle;rounded=0;orthogonalLoop=1;jettySize=auto;html=1;" parent="1" source="ql1I9ebc44FmFIgegDxp-93" edge="1">
          <mxGeometry relative="1" as="geometry">
            <mxPoint x="1738" y="1450" as="targetPoint" />
          </mxGeometry>
        </mxCell>
        <mxCell id="ql1I9ebc44FmFIgegDxp-93" value="TopTerms" style="ellipse;whiteSpace=wrap;html=1;" parent="1" vertex="1">
          <mxGeometry x="1818" y="1410" width="120" height="80" as="geometry" />
        </mxCell>
        <mxCell id="ql1I9ebc44FmFIgegDxp-95" style="edgeStyle=orthogonalEdgeStyle;rounded=0;orthogonalLoop=1;jettySize=auto;html=1;entryX=1;entryY=0.5;entryDx=0;entryDy=0;" parent="1" source="ql1I9ebc44FmFIgegDxp-94" target="ql1I9ebc44FmFIgegDxp-93" edge="1">
          <mxGeometry relative="1" as="geometry" />
        </mxCell>
        <mxCell id="ql1I9ebc44FmFIgegDxp-94" value="&lt;span style=&quot;background-color: light-dark(rgb(211, 213, 214), rgb(0, 0, 0));&quot;&gt;&lt;font style=&quot;color: light-dark(rgb(18, 18, 18), rgb(255, 255, 255));&quot;&gt;MATRIX -&amp;gt; TOP TERMS&lt;/font&gt;&lt;/span&gt;" style="rounded=0;whiteSpace=wrap;html=1;" parent="1" vertex="1">
          <mxGeometry x="2028" y="1420" width="110" height="60" as="geometry" />
        </mxCell>
        <mxCell id="ql1I9ebc44FmFIgegDxp-98" value="" style="rounded=0;whiteSpace=wrap;html=1;fillColor=none;dashed=1;dashPattern=8 8;strokeWidth=3;" parent="1" vertex="1">
          <mxGeometry x="1688" y="1390" width="490" height="120" as="geometry" />
        </mxCell>
        <mxCell id="ql1I9ebc44FmFIgegDxp-99" value="&lt;font style=&quot;font-size: 17px;&quot;&gt;DISPLAY&lt;/font&gt;" style="text;html=1;align=center;verticalAlign=middle;whiteSpace=wrap;rounded=0;" parent="1" vertex="1">
          <mxGeometry x="2208" y="1400" width="90" height="45" as="geometry" />
        </mxCell>
        <mxCell id="gT4iNRSpgPz8_031imJl-2" style="edgeStyle=orthogonalEdgeStyle;rounded=0;orthogonalLoop=1;jettySize=auto;html=1;" parent="1" source="gT4iNRSpgPz8_031imJl-3" edge="1">
          <mxGeometry relative="1" as="geometry">
            <mxPoint x="1738" y="757" as="targetPoint" />
          </mxGeometry>
        </mxCell>
        <mxCell id="gT4iNRSpgPz8_031imJl-3" value="Document exact generator" style="ellipse;whiteSpace=wrap;html=1;" parent="1" vertex="1">
          <mxGeometry x="1818" y="717" width="120" height="80" as="geometry" />
        </mxCell>
        <mxCell id="gT4iNRSpgPz8_031imJl-4" style="edgeStyle=orthogonalEdgeStyle;rounded=0;orthogonalLoop=1;jettySize=auto;html=1;entryX=1;entryY=0.5;entryDx=0;entryDy=0;" parent="1" source="gT4iNRSpgPz8_031imJl-5" target="gT4iNRSpgPz8_031imJl-3" edge="1">
          <mxGeometry relative="1" as="geometry" />
        </mxCell>
        <mxCell id="gT4iNRSpgPz8_031imJl-5" value="&lt;span style=&quot;background-color: light-dark(rgb(211, 213, 214), rgb(0, 0, 0));&quot;&gt;&lt;font style=&quot;color: light-dark(rgb(18, 18, 18), rgb(255, 255, 255));&quot;&gt;SECTIONS_FULL&lt;br&gt;-&amp;gt; DOCUMENTS&lt;/font&gt;&lt;/span&gt;" style="rounded=0;whiteSpace=wrap;html=1;" parent="1" vertex="1">
          <mxGeometry x="2028" y="727" width="110" height="60" as="geometry" />
        </mxCell>
        <mxCell id="gT4iNRSpgPz8_031imJl-7" value="&lt;font style=&quot;font-size: 17px;&quot;&gt;INDEX_EXACT&lt;/font&gt;" style="text;html=1;align=center;verticalAlign=middle;whiteSpace=wrap;rounded=0;" parent="1" vertex="1">
          <mxGeometry x="2208" y="707" width="120" height="45" as="geometry" />
        </mxCell>
        <mxCell id="gT4iNRSpgPz8_031imJl-8" value="" style="rounded=0;whiteSpace=wrap;html=1;fillColor=none;dashed=1;dashPattern=8 8;strokeWidth=3;" parent="1" vertex="1">
          <mxGeometry x="1688" y="690" width="510" height="233" as="geometry" />
        </mxCell>
        <mxCell id="gT4iNRSpgPz8_031imJl-9" style="edgeStyle=orthogonalEdgeStyle;rounded=0;orthogonalLoop=1;jettySize=auto;html=1;" parent="1" source="gT4iNRSpgPz8_031imJl-10" edge="1">
          <mxGeometry relative="1" as="geometry">
            <mxPoint x="1738" y="850" as="targetPoint" />
          </mxGeometry>
        </mxCell>
        <mxCell id="gT4iNRSpgPz8_031imJl-10" value="Available Sections" style="ellipse;whiteSpace=wrap;html=1;" parent="1" vertex="1">
          <mxGeometry x="1818" y="810" width="120" height="80" as="geometry" />
        </mxCell>
        <mxCell id="gT4iNRSpgPz8_031imJl-11" style="edgeStyle=orthogonalEdgeStyle;rounded=0;orthogonalLoop=1;jettySize=auto;html=1;entryX=1;entryY=0.5;entryDx=0;entryDy=0;" parent="1" source="gT4iNRSpgPz8_031imJl-12" target="gT4iNRSpgPz8_031imJl-10" edge="1">
          <mxGeometry relative="1" as="geometry" />
        </mxCell>
        <mxCell id="gT4iNRSpgPz8_031imJl-12" value="&lt;span style=&quot;background-color: light-dark(rgb(0, 0, 0), rgb(0, 0, 0));&quot;&gt;&lt;font&gt;DOCUMENTS_FULL&lt;/font&gt;&lt;/span&gt;&lt;div&gt;&lt;span style=&quot;background-color: light-dark(rgb(0, 0, 0), rgb(0, 0, 0));&quot;&gt;&lt;font&gt;-&amp;gt; SECTIONS_AVAILABLE&lt;/font&gt;&lt;/span&gt;&lt;/div&gt;" style="rounded=0;whiteSpace=wrap;html=1;" parent="1" vertex="1">
          <mxGeometry x="2028" y="820" width="140" height="60" as="geometry" />
        </mxCell>
        <mxCell id="gT4iNRSpgPz8_031imJl-38" value="" style="edgeStyle=orthogonalEdgeStyle;rounded=0;orthogonalLoop=1;jettySize=auto;html=1;" parent="1" edge="1">
          <mxGeometry relative="1" as="geometry">
            <mxPoint x="127.5" y="595" as="targetPoint" />
          </mxGeometry>
        </mxCell>
        <mxCell id="uJ9Kcmu_RjlqOqqsr5nl-4" style="edgeStyle=orthogonalEdgeStyle;rounded=0;orthogonalLoop=1;jettySize=auto;html=1;entryX=0.5;entryY=0;entryDx=0;entryDy=0;" parent="1" source="uJ9Kcmu_RjlqOqqsr5nl-5" target="uJ9Kcmu_RjlqOqqsr5nl-9" edge="1">
          <mxGeometry relative="1" as="geometry">
            <mxPoint x="2810" y="620" as="targetPoint" />
          </mxGeometry>
        </mxCell>
        <mxCell id="uJ9Kcmu_RjlqOqqsr5nl-5" value="sparse_app.py" style="rounded=0;whiteSpace=wrap;html=1;" parent="1" vertex="1">
          <mxGeometry x="2760" width="120" height="60" as="geometry" />
        </mxCell>
        <mxCell id="uJ9Kcmu_RjlqOqqsr5nl-6" style="edgeStyle=orthogonalEdgeStyle;rounded=0;orthogonalLoop=1;jettySize=auto;html=1;entryX=0;entryY=0.5;entryDx=0;entryDy=0;" parent="1" source="uJ9Kcmu_RjlqOqqsr5nl-7" target="uJ9Kcmu_RjlqOqqsr5nl-10" edge="1">
          <mxGeometry relative="1" as="geometry" />
        </mxCell>
        <mxCell id="uJ9Kcmu_RjlqOqqsr5nl-7" value="Data" style="rhombus;whiteSpace=wrap;html=1;" parent="1" vertex="1">
          <mxGeometry x="3051" y="159.5" width="77.5" height="80" as="geometry" />
        </mxCell>
        <mxCell id="uJ9Kcmu_RjlqOqqsr5nl-8" style="edgeStyle=orthogonalEdgeStyle;rounded=0;orthogonalLoop=1;jettySize=auto;html=1;entryX=0.5;entryY=0;entryDx=0;entryDy=0;" parent="1" source="uJ9Kcmu_RjlqOqqsr5nl-9" target="uJ9Kcmu_RjlqOqqsr5nl-23" edge="1">
          <mxGeometry relative="1" as="geometry" />
        </mxCell>
        <mxCell id="2cY7QteUIcVS3aujSRc4-3" style="edgeStyle=orthogonalEdgeStyle;rounded=0;orthogonalLoop=1;jettySize=auto;html=1;entryX=0;entryY=0.5;entryDx=0;entryDy=0;" edge="1" parent="1" source="uJ9Kcmu_RjlqOqqsr5nl-9" target="2cY7QteUIcVS3aujSRc4-4">
          <mxGeometry relative="1" as="geometry">
            <mxPoint x="2949.9999999999995" y="430" as="targetPoint" />
          </mxGeometry>
        </mxCell>
        <mxCell id="2cY7QteUIcVS3aujSRc4-7" style="edgeStyle=orthogonalEdgeStyle;rounded=0;orthogonalLoop=1;jettySize=auto;html=1;exitX=1;exitY=1;exitDx=0;exitDy=0;entryX=0;entryY=0;entryDx=0;entryDy=0;" edge="1" parent="1" source="uJ9Kcmu_RjlqOqqsr5nl-9" target="2cY7QteUIcVS3aujSRc4-8">
          <mxGeometry relative="1" as="geometry">
            <mxPoint x="2939.9999999999995" y="510" as="targetPoint" />
          </mxGeometry>
        </mxCell>
        <mxCell id="uJ9Kcmu_RjlqOqqsr5nl-9" value="search_sparse" style="rounded=0;whiteSpace=wrap;html=1;" parent="1" vertex="1">
          <mxGeometry x="2760" y="400" width="120" height="60" as="geometry" />
        </mxCell>
        <mxCell id="uJ9Kcmu_RjlqOqqsr5nl-10" value="vectorizer + sparse_matrix + study_ids + documents + top_terms" style="ellipse;whiteSpace=wrap;html=1;" parent="1" vertex="1">
          <mxGeometry x="3170" y="140" width="180" height="120" as="geometry" />
        </mxCell>
        <mxCell id="uJ9Kcmu_RjlqOqqsr5nl-11" style="edgeStyle=orthogonalEdgeStyle;rounded=0;orthogonalLoop=1;jettySize=auto;html=1;" parent="1" source="uJ9Kcmu_RjlqOqqsr5nl-13" edge="1">
          <mxGeometry relative="1" as="geometry">
            <mxPoint x="2820" y="199.5" as="targetPoint" />
          </mxGeometry>
        </mxCell>
        <mxCell id="uJ9Kcmu_RjlqOqqsr5nl-12" style="edgeStyle=orthogonalEdgeStyle;rounded=0;orthogonalLoop=1;jettySize=auto;html=1;entryX=0;entryY=0.5;entryDx=0;entryDy=0;" parent="1" source="uJ9Kcmu_RjlqOqqsr5nl-13" target="uJ9Kcmu_RjlqOqqsr5nl-7" edge="1">
          <mxGeometry relative="1" as="geometry" />
        </mxCell>
        <mxCell id="uJ9Kcmu_RjlqOqqsr5nl-13" value="load_sparse" style="rounded=0;whiteSpace=wrap;html=1;" parent="1" vertex="1">
          <mxGeometry x="2880" y="169.5" width="120" height="60" as="geometry" />
        </mxCell>
        <mxCell id="uJ9Kcmu_RjlqOqqsr5nl-14" style="edgeStyle=orthogonalEdgeStyle;rounded=0;orthogonalLoop=1;jettySize=auto;html=1;" parent="1" source="uJ9Kcmu_RjlqOqqsr5nl-16" edge="1">
          <mxGeometry relative="1" as="geometry">
            <mxPoint x="2820" y="317" as="targetPoint" />
          </mxGeometry>
        </mxCell>
        <mxCell id="uJ9Kcmu_RjlqOqqsr5nl-16" value="Query" style="rounded=0;whiteSpace=wrap;html=1;" parent="1" vertex="1">
          <mxGeometry x="2880" y="282" width="120" height="70" as="geometry" />
        </mxCell>
        <mxCell id="uJ9Kcmu_RjlqOqqsr5nl-17" value="" style="edgeStyle=orthogonalEdgeStyle;rounded=0;orthogonalLoop=1;jettySize=auto;html=1;entryX=1;entryY=0.5;entryDx=0;entryDy=0;" parent="1" source="uJ9Kcmu_RjlqOqqsr5nl-18" target="uJ9Kcmu_RjlqOqqsr5nl-16" edge="1">
          <mxGeometry relative="1" as="geometry">
            <mxPoint x="3177.5" y="317" as="targetPoint" />
          </mxGeometry>
        </mxCell>
        <mxCell id="uJ9Kcmu_RjlqOqqsr5nl-18" value="Text_input" style="rounded=0;whiteSpace=wrap;html=1;" parent="1" vertex="1">
          <mxGeometry x="3070" y="281.25" width="120" height="70" as="geometry" />
        </mxCell>
        <mxCell id="uJ9Kcmu_RjlqOqqsr5nl-23" value="Display_sparse" style="rounded=0;whiteSpace=wrap;html=1;" parent="1" vertex="1">
          <mxGeometry x="2760" y="637" width="120" height="60" as="geometry" />
        </mxCell>
        <mxCell id="uJ9Kcmu_RjlqOqqsr5nl-24" style="edgeStyle=orthogonalEdgeStyle;rounded=0;orthogonalLoop=1;jettySize=auto;html=1;entryX=1;entryY=0.5;entryDx=0;entryDy=0;" parent="1" source="uJ9Kcmu_RjlqOqqsr5nl-25" target="uJ9Kcmu_RjlqOqqsr5nl-23" edge="1">
          <mxGeometry relative="1" as="geometry" />
        </mxCell>
        <mxCell id="uJ9Kcmu_RjlqOqqsr5nl-25" value="highlight" style="rounded=0;whiteSpace=wrap;html=1;" parent="1" vertex="1">
          <mxGeometry x="2960" y="639" width="120" height="58" as="geometry" />
        </mxCell>
        <mxCell id="2cY7QteUIcVS3aujSRc4-2" style="edgeStyle=orthogonalEdgeStyle;rounded=0;orthogonalLoop=1;jettySize=auto;html=1;entryX=0;entryY=0.5;entryDx=0;entryDy=0;" edge="1" parent="1" target="2cY7QteUIcVS3aujSRc4-1">
          <mxGeometry relative="1" as="geometry">
            <mxPoint x="2820" y="100" as="targetPoint" />
            <mxPoint x="2820" y="100" as="sourcePoint" />
            <Array as="points" />
          </mxGeometry>
        </mxCell>
        <mxCell id="2cY7QteUIcVS3aujSRc4-1" value="Display_title" style="rounded=0;whiteSpace=wrap;html=1;" vertex="1" parent="1">
          <mxGeometry x="2880" y="70" width="120" height="60" as="geometry" />
        </mxCell>
        <mxCell id="2cY7QteUIcVS3aujSRc4-6" style="edgeStyle=orthogonalEdgeStyle;rounded=0;orthogonalLoop=1;jettySize=auto;html=1;entryX=0.5;entryY=0;entryDx=0;entryDy=0;" edge="1" parent="1" source="2cY7QteUIcVS3aujSRc4-4" target="2cY7QteUIcVS3aujSRc4-8">
          <mxGeometry relative="1" as="geometry">
            <mxPoint x="2991" y="500" as="targetPoint" />
          </mxGeometry>
        </mxCell>
        <mxCell id="2cY7QteUIcVS3aujSRc4-4" value="preprocess_query" style="rounded=0;whiteSpace=wrap;html=1;" vertex="1" parent="1">
          <mxGeometry x="2931" y="400" width="120" height="60" as="geometry" />
        </mxCell>
        <mxCell id="2cY7QteUIcVS3aujSRc4-9" style="edgeStyle=orthogonalEdgeStyle;rounded=0;orthogonalLoop=1;jettySize=auto;html=1;exitX=0;exitY=0.5;exitDx=0;exitDy=0;" edge="1" parent="1" source="2cY7QteUIcVS3aujSRc4-8">
          <mxGeometry relative="1" as="geometry">
            <mxPoint x="2820" y="546" as="targetPoint" />
            <mxPoint x="2906.0000283215377" y="560.2857142857142" as="sourcePoint" />
          </mxGeometry>
        </mxCell>
        <mxCell id="2cY7QteUIcVS3aujSRc4-8" value="query_cleaned + results" style="ellipse;whiteSpace=wrap;html=1;" vertex="1" parent="1">
          <mxGeometry x="2906" y="502.5" width="170" height="87.5" as="geometry" />
        </mxCell>
      </root>
    </mxGraphModel>
  </diagram>
</mxfile>
